<?xml version="1.0" encoding="utf-8"?>
<!-- Generator: Adobe Illustrator 19.1.0, SVG Export Plug-In . SVG Version: 6.00 Build 0)  -->
<!DOCTYPE svg PUBLIC "-//W3C//DTD SVG 1.1//EN" "http://www.w3.org/Graphics/SVG/1.1/DTD/svg11.dtd">
<svg version="1.1" id="Layer_1" xmlns="http://www.w3.org/2000/svg" xmlns:xlink="http://www.w3.org/1999/xlink" x="0px" y="0px"
	 width="30px" height="30px" viewBox="0 0 30 30" enable-background="new 0 0 30 30" xml:space="preserve">
<path d="M29.9,14.9c0,8.2-6.7,14.9-14.9,14.9S0,23.2,0,14.9S6.7,0,14.9,0S29.9,6.7,29.9,14.9z M14.9,4C9.1,4,4.4,8.7,4.4,14.6
	s4.7,10.5,10.5,10.5s10.5-4.7,10.5-10.5S20.7,4,14.9,4z"/>
<path d="M17.3,15.4l1.3,1.3c0.4,0.4,0.4,0.9,0,1.3L18.4,18c-0.4,0.4-0.9,0.4-1.3,0l-1.3-1.3c-0.4-0.4-0.9-0.4-1.3,0l-1.4,1.4
	c-0.4,0.4-0.9,0.4-1.3,0L11.8,18c-0.4-0.4-0.4-0.9,0-1.3l1.4-1.3c0.4-0.4,0.4-0.9,0-1.3l-1.4-1.4c-0.4-0.4-0.4-0.9,0-1.3l0.1-0.1
	c0.4-0.4,0.9-0.4,1.3,0l1.4,1.4c0.4,0.4,0.9,0.4,1.3,0l1.3-1.3c0.4-0.4,0.9-0.4,1.3,0l0.1,0.1c0.4,0.4,0.4,0.9,0,1.3l-1.3,1.3
	C16.9,14.4,16.9,15,17.3,15.4z"/>
<circle cx="7.5" cy="14.3" r="1.4"/>
<circle cx="21.5" cy="14.3" r="1.4"/>
<path d="M17.9,20c0.3,0,0.6,0.3,0.5,0.6c-0.4,1.3-1.7,2.2-3.1,2.2c-1.4,0-2.7-0.9-3.1-2.2C12,20.3,12.3,20,12.6,20H17.9z"/>
</svg>
