<?xml version="1.0" encoding="utf-8"?>
<!-- Generator: Adobe Illustrator 19.1.0, SVG Export Plug-In . SVG Version: 6.00 Build 0)  -->
<!DOCTYPE svg PUBLIC "-//W3C//DTD SVG 1.1//EN" "http://www.w3.org/Graphics/SVG/1.1/DTD/svg11.dtd">
<svg version="1.1" id="Layer_1" xmlns="http://www.w3.org/2000/svg" xmlns:xlink="http://www.w3.org/1999/xlink" x="0px" y="0px"
	 width="30px" height="30px" viewBox="0 0 30 30" enable-background="new 0 0 30 30" xml:space="preserve">
<g>
	<path fill="none" d="M14.9,4C9.1,4,4.4,8.7,4.4,14.6s4.7,10.5,10.5,10.5c5.8,0,10.5-4.7,10.5-10.5S20.7,4,14.9,4z M7.5,15.7
		c-0.8,0-1.4-0.6-1.4-1.4s0.6-1.4,1.4-1.4s1.4,0.6,1.4,1.4S8.3,15.7,7.5,15.7z M18.4,20.6c-0.4,1.3-1.7,2.2-3.1,2.2
		c-1.4,0-2.7-0.9-3.1-2.2C12,20.3,12.3,20,12.6,20h5.3C18.2,20,18.5,20.3,18.4,20.6z M17.3,15.4l1.3,1.3c0.4,0.4,0.4,0.9,0,1.3
		L18.4,18c-0.4,0.4-0.9,0.4-1.3,0l-1.3-1.3c-0.4-0.4-0.9-0.4-1.3,0l-1.4,1.4c-0.4,0.4-0.9,0.4-1.3,0L11.8,18c-0.4-0.4-0.4-0.9,0-1.3
		l1.4-1.3c0.4-0.4,0.4-0.9,0-1.3l-1.4-1.4c-0.4-0.4-0.4-0.9,0-1.3l0.1-0.1c0.4-0.4,0.9-0.4,1.3,0l1.4,1.4c0.4,0.4,0.9,0.4,1.3,0
		l1.3-1.3c0.4-0.4,0.9-0.4,1.3,0l0.1,0.1c0.4,0.4,0.4,0.9,0,1.3l-1.3,1.3C16.9,14.4,16.9,15,17.3,15.4z M22.9,14.3
		c0,0.8-0.6,1.4-1.4,1.4s-1.4-0.6-1.4-1.4s0.6-1.4,1.4-1.4S22.9,13.5,22.9,14.3z"/>
	<path d="M14.9,0C6.7,0,0,6.7,0,14.9s6.7,14.9,14.9,14.9c8.2,0,14.9-6.7,14.9-14.9S23.2,0,14.9,0z M14.9,25.1
		c-5.8,0-10.5-4.7-10.5-10.5S9.1,4,14.9,4c5.8,0,10.5,4.7,10.5,10.5S20.7,25.1,14.9,25.1z"/>
	<path d="M18.5,12.8c0.4-0.4,0.4-0.9,0-1.3l-0.1-0.1c-0.4-0.4-0.9-0.4-1.3,0l-1.3,1.3c-0.4,0.4-0.9,0.4-1.3,0l-1.4-1.4
		c-0.4-0.4-0.9-0.4-1.3,0l-0.1,0.1c-0.4,0.4-0.4,0.9,0,1.3l1.4,1.4c0.4,0.4,0.4,0.9,0,1.3l-1.4,1.3c-0.4,0.4-0.4,0.9,0,1.3l0.1,0.1
		c0.4,0.4,0.9,0.4,1.3,0l1.4-1.4c0.4-0.4,0.9-0.4,1.3,0l1.3,1.3c0.4,0.4,0.9,0.4,1.3,0l0.1-0.1c0.4-0.4,0.4-0.9,0-1.3l-1.3-1.3
		c-0.4-0.4-0.4-0.9,0-1.3L18.5,12.8z"/>
	<circle cx="7.5" cy="14.3" r="1.4"/>
	<circle cx="21.5" cy="14.3" r="1.4"/>
	<path d="M17.9,20h-5.3c-0.3,0-0.6,0.3-0.5,0.6c0.4,1.3,1.7,2.2,3.1,2.2c1.4,0,2.7-0.9,3.1-2.2C18.5,20.3,18.2,20,17.9,20z"/>
</g>
</svg>
